<svg xmlns="http://www.w3.org/2000/svg" width="85.4" height="53.225" viewBox="0 0 85.4 53.225"><defs><style>.a{fill:#1d1d1d;}.b{fill:#79c843;}</style></defs><g transform="translate(-5270.281 1035.742)"><path class="a" d="M5270.281-822.808a8.33,8.33,0,0,1,2.1-.576c8.8-.04,17.6-.026,26.406-.025.3,0,.672-.1.884.045a12.99,12.99,0,0,1,1.359,1.167,10.126,10.126,0,0,1-1.361,1.144c-.26.155-.684.041-1.034.041-8.7,0-17.4.015-26.105-.025a9.533,9.533,0,0,1-2.25-.568Z" transform="translate(0 -167.133)"/><path class="b" d="M5376.007-1035.742q5.684,3.409,11.37,6.819c.34.2.862.35.972.645a3.257,3.257,0,0,1,.291,2.022c-.13.345-1.247.656-1.722.472a38.363,38.363,0,0,1-4.692-2.262c-2.351-1.3-4.651-2.7-6.972-4.058-2.016-1.179-2.114-1.978-.449-3.637Z" transform="translate(-81.369)"/><path class="a" d="M5638.04-815.764c-.33-.195-.663-.384-.99-.584-1.742-1.07-2.034-2.152-1.043-3.879.4-.69.808-1.37,1.2-2.059,1.14-1.983,3.186-2.208,4.718-.435a12.323,12.323,0,0,1,1.224,2.146v1.8c-.48,1.686-1.978,2.255-3.308,3.007Z" transform="translate(-287.471 -166.753)"/><path class="b" d="M5352.035-1001.633l-7.7,13.211-13.568-7.861,7.686-13.221Z" transform="translate(-47.616 -20.656)"/><path class="a" d="M5537.567-872.988c.886-1.526,1.707-2.939,2.623-4.516l19.66,11.274-2.586,4.544Z" transform="translate(-210.42 -124.572)"/><path class="a" d="M5411.371-945.024l2.233-3.814,22.916,13.36-2.242,3.807Z" transform="translate(-111.072 -68.414)"/><path class="a" d="M5292.612-837.479c3.858,0,7.716.006,11.575,0,.844,0,1.78.034,1.832,1.071.056,1.112-.9,1.319-1.8,1.32q-11.575.014-23.15,0c-.9,0-1.891-.16-1.912-1.222-.022-1.124.984-1.175,1.88-1.173Q5286.824-837.47,5292.612-837.479Z" transform="translate(-6.987 -156.078)"/><path class="b" d="M5329.44-924.127a13.284,13.284,0,0,1-2.054-.717c-3.738-2.109-7.45-4.265-11.179-6.389-1.065-.607-.925-1.459-.471-2.311a1.42,1.42,0,0,1,2.162-.6c3.932,2.278,7.873,4.543,11.739,6.928a2.928,2.928,0,0,1,.9,2C5330.575-924.9,5329.827-924.49,5329.44-924.127Z" transform="translate(-35.516 -79.769)"/><path class="a" d="M5301.766-850.309c-3.052,0-6.1-.012-9.156.008-.9.006-1.66-.138-1.634-1.236.024-1.022.794-1.132,1.6-1.131q9.232,0,18.463,0c.874,0,1.7.159,1.657,1.241-.039.951-.784,1.132-1.624,1.127C5307.97-850.321,5304.868-850.309,5301.766-850.309Z" transform="translate(-16.291 -144.123)"/><path class="b" d="M5328.2-941.42c.278-.484.519-.9.84-1.464l12.378,7.046-.844,1.467Z" transform="translate(-45.596 -73.102)"/><path class="b" d="M5371.568-1016.936l.8-1.479,12.385,7.034-.81,1.491Z" transform="translate(-79.738 -13.641)"/><path class="a" d="M5522.386-883.154l-2.222-1.227,3.707-6.626,2.206,1.244Z" transform="translate(-196.719 -113.941)"/></g></svg>