<svg xmlns="http://www.w3.org/2000/svg" width="46.549" height="60.343" viewBox="0 0 46.549 60.343"><defs><style>.a{fill:#1d1d1d;}.b{fill:#79c843;}</style></defs><g transform="translate(-1474.612 1252.14)"><path class="a" d="M1521.161-1221.977q0,14.424,0,28.848c0,1.095-.236,1.328-1.339,1.328H1476.2c-.235,0-.471.009-.706-.007a.872.872,0,0,1-.863-.869c-.01-.144,0-.29,0-.435q0-21.242-.012-42.484a2.072,2.072,0,0,1,.645-1.582q7.1-7.223,14.171-14.479a1.482,1.482,0,0,1,1.147-.484q14.723.015,29.446.008c.865,0,1.138.29,1.139,1.2Q1521.161-1236.455,1521.161-1221.977Zm-1.856-28.3h-28.084v.619q0,6.519,0,13.038c0,1.141-.231,1.378-1.357,1.38q-6.41.012-12.82.021c-.19,0-.379.018-.556.028v41.517h42.819Zm-29.928,1.3-11.618,11.883h11.618Z"/><path class="b" d="M1570.309-1188.825c.877,0,1.726-.006,2.575,0a.819.819,0,0,1,.9.627,1.458,1.458,0,0,1-.27.964c-.12.169-.48.219-.736.228-.812.027-1.625.01-2.537.01,0,.364,0,.7,0,1.031a.922.922,0,0,1-.623.979.946.946,0,0,1-1.1-.381c-1.039-1.3-2.085-2.59-3.166-3.931l-2.374,2.639c-.411.457-.825.913-1.233,1.373a.909.909,0,0,1-1.028.3.9.9,0,0,1-.619-.927c-.009-.34,0-.68,0-1.083h-16.824a5.29,5.29,0,0,1-.543-.01.878.878,0,0,1-.811-.865.843.843,0,0,1,.7-.906,3.5,3.5,0,0,1,.755-.049q8.065,0,16.129,0c.176,0,.352-.014.6-.025v-1.265c0-1.448.014-2.9-.013-4.344a1.394,1.394,0,0,0-.279-.774c-.566-.728-1.2-1.4-1.757-2.139a2.127,2.127,0,0,1-.427-1.011q-.193-1.917-.262-3.845a2.069,2.069,0,0,1,.284-1.059c.639-1.092,1.315-2.164,2.015-3.219a1.843,1.843,0,0,1,.757-.644q1.816-.786,3.673-1.477a1.746,1.746,0,0,1,.943-.059q1.932.435,3.843.959a1.632,1.632,0,0,1,.756.475c.881,1.008,1.744,2.033,2.578,3.08a1.734,1.734,0,0,1,.333.88q.179,1.946.271,3.9a1.729,1.729,0,0,1-.223.915c-.693,1.166-1.431,2.305-2.142,3.461a1.133,1.133,0,0,0-.2.54c-.012,1.81-.005,3.62,0,5.431A1.282,1.282,0,0,0,1570.309-1188.825Zm.65-11.242a9.2,9.2,0,0,1-.1-1.356,4.143,4.143,0,0,0-1.172-3.008,5.535,5.535,0,0,0-3.353-2.1,5.307,5.307,0,0,0-3.274.23,4.693,4.693,0,0,0-2.942,2.476c-.188.426-.507.793-.726,1.208a1.459,1.459,0,0,0-.182.7c.043.976.109,1.952.207,2.924a1.576,1.576,0,0,0,.307.77c.533.685,1.121,1.327,1.66,2.008a1.854,1.854,0,0,0,1.149.729,20.225,20.225,0,0,1,2.05.517,2.345,2.345,0,0,0,1.818-.131,11.959,11.959,0,0,0,2.558-1.14,11.058,11.058,0,0,0,1.557-2.329A1.783,1.783,0,0,0,1570.959-1200.067Zm-9.014,11.651.158.122a1.322,1.322,0,0,1,.151-.287c.794-.89,1.587-1.782,2.4-2.659a.919.919,0,0,1,1.527.05c.221.263.429.536.646.8.495.607.991,1.213,1.544,1.889v-5.423a9.8,9.8,0,0,0-1.108.445,3.774,3.774,0,0,1-3.321.234,17.978,17.978,0,0,0-1.992-.5Z" transform="translate(-59.998 -38.696)"/><path class="b" d="M1629.982-871.226v10.888h10.925v-.593q0-3.069,0-6.137c0-.746.342-1.167.919-1.157s.91.437.911,1.18q0,3.721,0,7.441c0,.825-.323,1.132-1.164,1.132q-6.165,0-12.329,0c-.8,0-1.117-.312-1.118-1.122q-.008-6.165,0-12.329c0-.747.3-1.122.948-1.125q3.911-.019,7.821,0a.9.9,0,0,1,.95.905.927.927,0,0,1-.9.909c-.179.018-.362.011-.543.011h-6.419Z" transform="translate(-136.83 -337.892)"/><path class="a" d="M1557.891-911.738h-14.658c-.163,0-.327.008-.488-.008a.886.886,0,0,1-.821-.857.847.847,0,0,1,.689-.913,2.555,2.555,0,0,1,.592-.049q14.712,0,29.425,0a2.522,2.522,0,0,1,.486.032.893.893,0,0,1,.744.927.892.892,0,0,1-.821.859,4.613,4.613,0,0,1-.488.008Z" transform="translate(-59.998 -301.786)"/><path class="a" d="M1557.964-967.777q-7.466,0-14.933,0c-.712,0-1.092-.336-1.091-.926,0-.551.41-.888,1.124-.889q6.212-.01,12.424-.01l16.277-.006c.362,0,.724-.008,1.085,0,.648.022,1.035.388,1.02.949a.908.908,0,0,1-1.026.875q-7.087,0-14.173,0h-.706Z" transform="translate(-60.012 -251.829)"/><path class="b" d="M1667.431-862.171l3.468-5.79c.335-.559.662-1.122,1-1.676a.925.925,0,0,1,1.32-.446.923.923,0,0,1,.26,1.367q-2.573,4.309-5.158,8.61a.915.915,0,0,1-1.686.063c-.873-1.309-1.729-2.629-2.579-3.953a.893.893,0,0,1,.227-1.327.915.915,0,0,1,1.307.349C1666.2-864.074,1666.783-863.162,1667.431-862.171Z" transform="translate(-168.689 -340.425)"/></g></svg>