<svg xmlns="http://www.w3.org/2000/svg" width="66.375" height="66.292" viewBox="0 0 66.375 66.292"><defs><style>.a{fill:#1d1d1d;}.b{fill:#79c843;}</style></defs><g transform="translate(626.387 1113.913)"><path class="a" d="M-589.6-1101.523a4.046,4.046,0,0,1-3.981-.927c-.281.167-.535.331-.8.474-.8.426-1.425.806-1.232,2a2.831,2.831,0,0,1-1.422,2.721c-.886.6-1.782,1.2-2.708,1.738a3.243,3.243,0,0,1-3.6-.066.862.862,0,0,0-1.16.009,1.351,1.351,0,0,1-.282.167.975.975,0,0,0-.673,1.293,3.6,3.6,0,0,1-1.007,3.01,5.636,5.636,0,0,1,1.138,1.477,4.047,4.047,0,0,1-.076,1.785c-.111.69-.562,1.429-.406,2.027.15.575.89.994,1.364,1.489a12.769,12.769,0,0,1,2.183,14.509,12.68,12.68,0,0,1-12.915,6.942,12.91,12.91,0,0,1-10.861-9.893,12.549,12.549,0,0,1,9.336-15.2.718.718,0,0,0,.615-.636c.142-.686.316-1.365.482-2.045.34-1.394.775-1.764,2.253-1.885a3.8,3.8,0,0,1,1.851-4.738,3.9,3.9,0,0,1,4.681.6c.474-.277.975-.54,1.436-.86a.667.667,0,0,0,.192-.532,3.561,3.561,0,0,1,1.707-3.644c.772-.5,1.543-1,2.324-1.486a3.383,3.383,0,0,1,3.892.023.668.668,0,0,0,.924-.013,1.713,1.713,0,0,1,.392-.239,1.594,1.594,0,0,0,1.1-1.909,3.8,3.8,0,0,1,3.51-3.954,3.784,3.784,0,0,1,3.11,1.054c.112-.175.208-.331.309-.483a2,2,0,0,1,2.107-.878c.749.161,1.5.33,2.233.543a.961.961,0,0,0,1.16-.365A12.679,12.679,0,0,1-566-1111.974a12.852,12.852,0,0,1,5.481,14.365,12.688,12.688,0,0,1-12.468,9.225,12.766,12.766,0,0,1-11.984-9.6.872.872,0,0,0-.8-.773c-.56-.1-1.108-.258-1.662-.39C-589.1-1099.546-589.339-1099.8-589.6-1101.523Zm27.488.315a10.519,10.519,0,0,0-10.644-10.62,10.677,10.677,0,0,0-10.672,10.645,10.719,10.719,0,0,0,10.644,10.691A10.676,10.676,0,0,0-562.114-1101.208Zm-51.685,36.4a10.733,10.733,0,0,0,10.839-10.656,10.675,10.675,0,0,0-10.665-10.666,10.53,10.53,0,0,0-10.622,10.587A10.68,10.68,0,0,0-613.8-1064.8Zm28.374-36.032a13.8,13.8,0,0,1,1.4-6.22l-2.117-.507-1.422,6.21Zm-21.933,11.935-6.214-1.426-.482,2.02c1.112.154,2.163.229,3.179.46s1.987.615,3.032.949Zm8.586-12.7c-1.089-.075-4.112,1.8-4.267,2.6,1.187-.333,1.536-.279,1.834.281s.146.941-.644,1.618c.934.108,3.84-1.719,4.067-2.557-1.037.429-1.374.4-1.719-.172S-599.69-1100.8-598.771-1101.6Zm-9.926,6.085c-1.517-.292-2.554.428-2.7,1.721a1.9,1.9,0,0,0,1.891,2,1.8,1.8,0,0,0,1.891-1.888c-.586.474-1.2.965-1.8.182C-610.091-1094.384-609.329-1094.911-608.7-1095.515Zm17.019-8.192a1.866,1.866,0,0,0,2.56-1.23,1.912,1.912,0,0,0-1.345-2.4,1.9,1.9,0,0,0-2.3,1.708c.963-.49,1.421-.477,1.79.053S-590.742-1104.655-591.679-1103.707Z"/><path class="a" d="M-574.791-713.1c2.276.406,4.552.507,6.693,1.4,1.266.528,2.612.861,3.912,1.311a1.222,1.222,0,0,1,.631.47c.6,1.044,1.173,2.1,1.71,3.18a.937.937,0,0,0,1,.627,1.317,1.317,0,0,1,.945.3,1.494,1.494,0,0,1,.339,1.036c-.043.461-.464.661-.925.665-1.03.009-2.059.008-3.089.008q-11.369,0-22.739-.015a1.362,1.362,0,0,0-1.4.935,4.826,4.826,0,0,1-4.728,3.133,4.822,4.822,0,0,1-4.671-3.124,1.4,1.4,0,0,0-1.462-.945q-12.881.028-25.762.012c-1.085,0-1.522-.288-1.522-1s.469-1.059,1.5-1.023a.919.919,0,0,0,.96-.586c.613-1.161,1.3-2.284,1.894-3.454a1.787,1.787,0,0,1,1.334-1.026c3-.606,5.991-1.294,9.009-1.809a48.865,48.865,0,0,1,9.685-.706,20.538,20.538,0,0,1,7.8,1.55c3.852,1.7,7.747,3.3,11.638,4.9a4.956,4.956,0,0,0,5.648-1.681A9.455,9.455,0,0,0-574.791-713.1Z" transform="translate(-0.46 -347.577)"/><path class="b" d="M-351.044-844.555l11.794,4.839c-.825,1.606-1.732,3.132-2.407,4.755s-1.12,3.348-1.7,5.125l-11.763-4.822A24,24,0,0,0-351.044-844.555Z" transform="translate(-235.606 -233.945)"/><path class="b" d="M-245.774-779.271a17.786,17.786,0,0,1,1.882-4.642.59.59,0,0,1,.515-.2,48.421,48.421,0,0,1,10.526,3.593,12.6,12.6,0,0,1,2.487,1.681c1.039.9,1.159,2.113.526,3.545a2.494,2.494,0,0,1-2.8,1.78,11.724,11.724,0,0,1-4.709-1.312c-2.783-1.367-5.508-2.853-8.256-4.292A1.1,1.1,0,0,1-245.774-779.271Z" transform="translate(-330.572 -286.436)"/><path class="b" d="M-316.359-890.893a26.237,26.237,0,0,1-1.09,2.494c-.115.214-.72.316-1.042.237a14.734,14.734,0,0,1-2.157-.774q-6.267-2.622-12.525-5.264c-.849-.357-1.036-.786-.683-1.653.182-.446.362-.894.58-1.322a3.118,3.118,0,0,1,3.971-1.491q5.5,2.253,10.981,4.535C-317.049-893.6-316.473-892.6-316.359-890.893Z" transform="translate(-253.924 -186.744)"/><path class="b" d="M-374.792-748.951a6.288,6.288,0,0,1-.942-.255q-5.433-2.225-10.855-4.477a3.057,3.057,0,0,1-1.738-4.254c.142-.344.29-.684.441-1.024.344-.776.805-.958,1.642-.616q3.461,1.414,6.916,2.844,3.7,1.522,7.4,3.042c.958.395,1.1.771.689,1.731-.2.461-.373.938-.616,1.376A3.142,3.142,0,0,1-374.792-748.951Z" transform="translate(-206.5 -307.606)"/></g></svg>