<svg xmlns="http://www.w3.org/2000/svg" width="73.08" height="58.466" viewBox="0 0 73.08 58.466"><defs><style>.a{fill:#1d1d1d;}.b{fill:#79c843;}</style></defs><g transform="translate(-97.199 1047.661)"><path class="a" d="M159.969-988.951c-.473-.324-.945-.651-1.553-1.07l-8.468-2.917A25.406,25.406,0,0,0,134.29-989.7c-.393.23-1.255-.095-1.785-.377a22.871,22.871,0,0,0-15.259-2.657c-9.842,1.793-16.43,7.525-19.057,17.1-2.682,9.773.117,18.33,8.037,24.648s16.748,6.961,25.828,2.426a3.267,3.267,0,0,1,3.479.026,23.576,23.576,0,0,0,31.316-8.643A23.636,23.636,0,0,0,159.969-988.951Zm.04,31.059c-5.244,6.173-14.58,8.063-21.233,4.182,5.033-6.358,7.094-13.408,5.1-21.328l-.641-.181c-.538.919-1.078,1.837-1.708,2.913l-3.54-1.638c1.261,6.34.135,11.806-4.261,16.744a33.865,33.865,0,0,0-2.5-3.471,29.28,29.28,0,0,0-3.1-2.581c-.862,1.237-1.551,2.254-2.3,3.227a3.191,3.191,0,0,0-1.191-.157q1.967,3.231,3.933,6.463c-4.757,3.389-14.564,2.76-20.393-3.451a17.481,17.481,0,0,1-.9-22.988c5.212-6.377,14.987-8.514,21.241-4.575a23.115,23.115,0,0,0-5.466,13.263,27.822,27.822,0,0,0,.345,6.443c.163.965,1.181,1.785,2.047,3,.8-1.416,1.348-2.39,1.956-3.467l2.142.949c-1.259-6.248-.087-11.683,4.273-16.631,1.934,2.708,3.491,5.724,7.329,6.2,3.913-3.991-.592-6.658-2.013-9.852,6.286-3.739,15.648-1.771,20.9,4.39A17.449,17.449,0,0,1,160.009-957.892Z" transform="translate(0 -43.571)"/><path class="b" d="M361.776-1039.694c-.058.474-.641.963-1.094,1.293-2.121,1.541-4.279,3.026-6.594,4.652.079.054.157.107.232.157l-8.468-2.917c.117.01.234.02.353.032-1.334-3.058-2.486-5.7-3.675-8.423,2.4-1.97,4.638-3.731,8.089-2.15a56.45,56.45,0,0,0,7.537,2.309C359.621-1044.306,361.964-1041.185,361.776-1039.694Z" transform="translate(-195.905)"/></g></svg>