<svg xmlns="http://www.w3.org/2000/svg" width="54.674" height="54.58" viewBox="0 0 54.674 54.58"><defs><style>.a{fill:#1d1d1d;}.b{fill:#79c843;}</style></defs><g transform="translate(-710.29 1049.028)"><path class="a" d="M755.408-940.144v-.957q0-14.038-.014-28.075a1.449,1.449,0,0,1,.726-1.4q8.857-5.866,17.668-11.8a1.118,1.118,0,0,1,1.5,0c5.9,3.976,11.822,7.91,17.719,11.886a1.514,1.514,0,0,1,.623,1.046q.05,14.356.025,28.711c0,.176-.023.352-.038.584Zm19.171-27.4a1.3,1.3,0,0,1-.179-.079c-.118-.094-.232-.194-.35-.287-2.771-2.184-5.852-3.021-9.156-1.55-3.4,1.515-5.075,4.393-5.278,8.059-.209,3.77,1.517,6.759,4.285,9.108,3.16,2.681,6.469,5.186,9.713,7.769a1.417,1.417,0,0,0,1.97-.1c1.583-1.268,3.2-2.491,4.764-3.784a70.007,70.007,0,0,0,6.111-5.261,10.1,10.1,0,0,0,2.792-9.359,8.6,8.6,0,0,0-8.341-7.106A9.368,9.368,0,0,0,774.579-967.54Z" transform="translate(-36.905 -54.304)"/><path class="a" d="M712.94-1009.123a2.481,2.481,0,0,1-2.54-1.6,2.326,2.326,0,0,1,1.012-2.689c2.208-1.489,4.431-2.958,6.648-4.434q9.222-6.138,18.438-12.287a1.757,1.757,0,0,1,2.229-.023q12.455,8.33,24.936,16.622a2.363,2.363,0,0,1,.933,3.342c-.773,1.2-2.132,1.41-3.5.5q-11-7.321-21.988-14.659c-1.341-.894-1.612-.894-2.93-.016q-10.919,7.276-21.845,14.542A10.162,10.162,0,0,1,712.94-1009.123Z" transform="translate(0 -15.128)"/><path class="a" d="M755.508-1036.627c0-3.478-.035-6.714.017-9.95a2.623,2.623,0,0,1,2.668-2.451,2.649,2.649,0,0,1,2.729,2.5c.09,1.963.037,3.934.025,5.9a.737.737,0,0,1-.242.536C759.038-1038.959,757.355-1037.852,755.508-1036.627Z" transform="translate(-36.988 0)"/><path class="b" d="M858-879.712c-.588-2.132-1.162-4.161-1.689-6.2-.048-.186.153-.491.317-.668.7-.753,1.435-1.476,2.15-2.216.976-1.011.982-1.646.031-2.642-.731-.766-1.467-1.528-2.2-2.294a2.166,2.166,0,0,1-.123-.305,28.834,28.834,0,0,1,3.106-3.565,5.517,5.517,0,0,1,6.033-.985,6.072,6.072,0,0,1,3.646,5.357c.29,3.287-1.4,5.666-3.789,7.634-2.007,1.656-4.082,3.23-6.128,4.839C858.932-880.427,858.506-880.1,858-879.712Z" transform="translate(-119.47 -122.685)"/><path class="b" d="M804.7-889.5c-.722.678-1.355,1.331-2.049,1.91a2.137,2.137,0,0,0-.712,2.578c.424,1.29.72,2.622,1.064,3.938a1.278,1.278,0,0,1-.047.821c-2.332-1.91-4.726-3.752-6.967-5.763a9.224,9.224,0,0,1-2.058-2.95,6.67,6.67,0,0,1,.608-7.054,5.75,5.75,0,0,1,9.169-.337c-.522.711-1.062,1.431-1.585,2.164a1.39,1.39,0,0,0,.129,2.1C803-891.271,803.783-890.469,804.7-889.5Z" transform="translate(-67.836 -123.186)"/></g></svg>