<svg xmlns="http://www.w3.org/2000/svg" width="66.567" height="73.373" viewBox="0 0 66.567 73.373"><defs><style>.a{fill:#1d1d1d;}.b{fill:#79c843;}</style></defs><g transform="translate(-4122.952 1076.85)"><path class="a" d="M4252.174-987.483v25.87c0,2.907-.93,3.839-3.83,3.839q-19.928,0-39.856,0c-2.928,0-3.83-.887-3.831-3.817q-.01-26.044,0-52.087c0-2.553,1.045-3.572,3.63-3.573q20.1,0,40.206,0c2.626,0,3.676,1.046,3.677,3.664q.006,13.052,0,26.1Zm-8.727-9.663a15.008,15.008,0,0,0-14.967-15.085,15.061,15.061,0,0,0-15.121,14.959,15.137,15.137,0,0,0,15,15.117A15.066,15.066,0,0,0,4243.448-997.146Zm-14.984,31.479v-.01q2.561,0,5.123,0c3.064,0,6.13.041,9.192-.06a2.244,2.244,0,0,0,1.622-.994,1.978,1.978,0,0,0-.2-1.79,2.477,2.477,0,0,0-1.734-.652c-5.119-.063-10.238-.066-15.357-.071q-6.518-.006-13.035.023c-1.486,0-2.315.99-1.945,2.336.3,1.084,1.208,1.212,2.132,1.214Q4221.363-965.656,4228.464-965.666Zm-.2-7.777h14.32a3.131,3.131,0,0,0,.465-.014,1.654,1.654,0,0,0,1.582-1.706,1.655,1.655,0,0,0-1.513-1.77,5.214,5.214,0,0,0-.93-.03q-13.864,0-27.729,0a3.866,3.866,0,0,0-1.254.152,1.652,1.652,0,0,0-.62,2.809,2.85,2.85,0,0,0,1.7.534C4218.94-973.423,4223.6-973.442,4228.262-973.444Z" transform="translate(-62.656 -45.704)"/><path class="a" d="M4139.184-976.111v34.684c-.353-.294-.613-.48-.837-.7q-7.008-7-14.006-14.013c-1.855-1.86-1.855-3.3.016-5.179q7.074-7.1,14.168-14.171C4138.683-975.65,4138.851-975.8,4139.184-976.111Z" transform="translate(0 -77.256)"/><path class="a" d="M4270.632-1065.771h-24.339a6.467,6.467,0,0,1,.492-.649q4.557-4.579,9.127-9.146c1.736-1.73,3.282-1.708,5.026.036q4.447,4.445,8.893,8.891C4270.044-1066.424,4270.243-1066.193,4270.632-1065.771Z" transform="translate(-94.589)"/><path class="b" d="M4272.088-980.623a15.066,15.066,0,0,1-15.093,14.99A15.136,15.136,0,0,1,4242-980.75a15.06,15.06,0,0,1,15.121-14.959A15.008,15.008,0,0,1,4272.088-980.623Zm-8.549,1.194H4258.5v5.091c1.317-.277,2.522-.5,3.71-.8a.969.969,0,0,0,.613-.578C4263.1-976.911,4263.3-978.124,4263.539-979.429Zm-12.67-.019c.258,1.346.471,2.552.737,3.747a.854.854,0,0,0,.482.563c1.135.284,2.287.5,3.491.758v-5.068Zm7.605-2.863h5.019c-.247-1.2-.45-2.3-.712-3.379a.866.866,0,0,0-.516-.546c-1.225-.284-2.463-.507-3.79-.77Zm-2.856-4.682c-1.194.242-2.254.43-3.3.687a.983.983,0,0,0-.637.543c-.289,1.109-.5,2.238-.758,3.463h4.692Zm-10.645,7.542-.173.323,3.719,2.711c-.157-1.238-.269-2.123-.385-3.034Zm5.658-11.973-4.146,4.092A4.229,4.229,0,0,0,4250.63-991.424Zm7.857,22.826.394.193,2.6-3.627-3,.407Zm7.478-8.3.229.2,3.157-2.39-.2-.346h-2.868C4266.174-978.561,4266.069-977.728,4265.964-976.9Zm-19.482,2.86,3.986,3.942C4250.28-972.539,4248.832-973.732,4246.482-974.037Zm12.317-18.868-.291.147v3.009l2.907.408Zm-10.309,8.341-.258-.177-3.176,2.273.121.206h3.007C4248.291-983.057,4248.391-983.81,4248.491-984.564Zm7.11,12.918-2.654-.356,2.424,3.4.23-.125Zm10.632-10.653h2.83l.1-.22-3.263-2.314C4266.03-983.832,4266.125-983.117,4266.233-982.3Zm-2.266-8.76a3.681,3.681,0,0,0,3.586,3.671Zm-8.356-1.495-.2-.107-2.353,3.292,2.556-.369Zm11.844,18.656c-2.229.152-3.194,1.511-3.446,3.551Z" transform="translate(-91.296 -62.227)"/></g></svg>