<svg xmlns="http://www.w3.org/2000/svg" width="101.328" height="139.344" viewBox="0 0 101.328 139.344"><defs><style>.a{fill:#1d1d1d;}.b{fill:#79c843;}</style></defs><g transform="translate(-1936.89 -1369.395)"><path class="a" d="M1936.89,1508.739q.007-48.88.013-97.761,0-20.083,0-40.167V1369.4h101.3v1.824q0,67.738,0,135.477c0,.681.01,1.362.015,2.043Zm95.046-6.28V1375.6h-88.763v126.854Z" transform="translate(0)"/><path class="b" d="M1983.546,1436.194c-.214,5.626-5.573,10.026-12.157,9.98-6.409-.044-11.69-4.519-11.53-9.859a8.833,8.833,0,0,0,1.171-1.818q4.456-13.119,8.806-26.274a1.74,1.74,0,0,1,2-1.436c6.444.058,12.889.015,19.333.038a1.984,1.984,0,0,0,1.989-.983,4.2,4.2,0,0,1,7.168,0,2,2,0,0,0,2,.982c6.489-.019,12.979.018,19.469-.037a1.589,1.589,0,0,1,1.8,1.313q4.355,13.15,8.81,26.266a5.24,5.24,0,0,0,1.332,1.866c-.042,5.6-5.325,9.974-11.922,9.948-6.4-.025-11.71-4.488-11.877-9.769.5-.534,1.093-.885,1.262-1.378,2.779-8.14,5.506-16.3,8.24-24.454a8.015,8.015,0,0,0,.178-.911H2015.6c-4.493,0-8.986.016-13.479-.017a1.783,1.783,0,0,0-1.751.91,4.332,4.332,0,0,1-7.322.021,2.039,2.039,0,0,0-1.306-.876c-5.762-.057-11.526-.036-17.29-.029a4.451,4.451,0,0,0-.678.128c.745,2.229,1.468,4.407,2.2,6.583,2.064,6.134,4.12,12.271,6.219,18.393a6.643,6.643,0,0,0,1.005,1.468Zm38.565-24.635-.372.025c-2.7,8.046-5.406,16.093-8.153,24.268h16.686Zm-42.211,24.318-8.187-24.354-.339.008c-2.709,8.069-5.418,16.138-8.174,24.346Zm16.832-25.8a1.928,1.928,0,0,0,1.89-1.908,1.882,1.882,0,0,0-3.761.127A1.908,1.908,0,0,0,1996.732,1410.077Z" transform="translate(-9.185 -13.773)"/><path class="a" d="M1959.233,1541.97v-4.04h74.474v4.04Z" transform="translate(-8.936 -67.401)"/><path class="a" d="M2033.734,1552.379v4.087H1959.3v-4.087Z" transform="translate(-8.962 -73.18)"/><path class="a" d="M1959.3,1523.508h74.412v4.007H1959.3Z" transform="translate(-8.961 -61.633)"/><path class="a" d="M2013.147,1421.348h4.662c.023.353.083.853.084,1.353.006,12.07.022,24.141-.02,36.21,0,1.1.288,1.635,1.363,1.912,1.355.349,2.661.884,4,1.311,1.6.51.751,1.811.832,2.767.016.179-.854.62-1.318.624q-7.282.064-14.565-.01c-.427,0-1.235-.444-1.214-.583.137-.917-.758-2.169.7-2.7,1.36-.5,2.719-1.012,4.114-1.387a1.618,1.618,0,0,0,1.385-1.9c-.046-12.024-.026-24.049-.025-36.074Z" transform="translate(-27.967 -20.777)"/><path class="a" d="M2016.594,1566.869v4.057h-57.272v-4.057Z" transform="translate(-8.971 -78.975)"/><path class="a" d="M1991.448,1508.974v-3.969h35.8v3.969Z" transform="translate(-21.819 -54.234)"/><path class="a" d="M2022.078,1397.377h-4.628a27.5,27.5,0,0,1,.034-3.582,2.042,2.042,0,0,1,2.3-1.825,2.069,2.069,0,0,1,2.26,1.887A27.794,27.794,0,0,1,2022.078,1397.377Z" transform="translate(-32.2 -9.028)"/></g></svg>