<svg xmlns="http://www.w3.org/2000/svg" width="72.691" height="57.325" viewBox="0 0 72.691 57.325"><defs><style>.a{fill:#1d1d1d;}.b{fill:#79c843;}</style></defs><g transform="translate(-1170.592 998.353)"><path class="a" d="M1217.539-899.352c-.607.074-1.223.1-1.819.229-5.708,1.183-11.41,2.4-17.122,3.56a5.394,5.394,0,0,1-2.02.008,3.286,3.286,0,0,1-2.931-2.949c-.186-1.689.943-2.625,2.414-3.1,4.19-1.353,8.415-2.6,12.587-4,2.875-.969,5.695-2.11,8.522-3.219a12.314,12.314,0,0,1,11.142.616,61.983,61.983,0,0,0,13.921,5.636c.29.088.568.215,1.051.4l-4.681,14.415c-3.392-1.127-6.627-2.169-9.837-3.279a8.441,8.441,0,0,0-6,.081c-4,1.527-8.027,2.965-12.029,4.482a13.67,13.67,0,0,1-10.325-.135c-9.013-3.585-17.84-7.51-25.83-13.1a26.312,26.312,0,0,1-2.8-2.162,3.213,3.213,0,0,1-.784-4.07,3.4,3.4,0,0,1,3.771-1.793,6.365,6.365,0,0,1,1.912.691c4.8,2.462,9.6,4.926,14.367,7.462a2.977,2.977,0,0,1,1.3,1.582c.787,2.482,2.687,4.267,5.237,3.82,6.466-1.135,12.872-2.612,19.3-3.982.3-.065.546-.408.817-.622Z" transform="translate(0 -55.5)"/><path class="a" d="M1245.414-960.455l1.458-3.641c2.908,1.073,5.682,2.1,8.457,3.119q9.684,3.567,19.369,7.135a10.881,10.881,0,0,1,1.374.566,2.929,2.929,0,0,1,1.413,3.791,2.9,2.9,0,0,1-3.817,1.7c-9.37-4.1-18.712-8.257-28.062-12.4C1245.557-960.2,1245.534-960.279,1245.414-960.455Z" transform="translate(-46.926 -21.485)"/><path class="b" d="M1215.255-983.475l-3.971,10.021-10.635-4.2,3.953-10.006Z" transform="translate(-18.85 -6.71)"/><path class="b" d="M1206.231-950.425c-.629-.215-.981-.322-1.323-.456-3.162-1.24-6.314-2.5-9.486-3.717-.99-.378-1.677-.867-1.259-2.04.452-1.268,1.315-1.207,2.392-.769,3.2,1.3,6.456,2.484,9.63,3.85a2.373,2.373,0,0,1,1.083,1.733C1207.308-951.378,1206.582-950.865,1206.231-950.425Z" transform="translate(-14.705 -25.502)"/><path class="b" d="M1224-993.417c.081,1.5-.916,2.348-2.047,1.922-3.467-1.307-6.925-2.645-10.324-4.117a2,2,0,0,1-.74-1.836,2.011,2.011,0,0,1,1.787-.875c3.49,1.241,6.926,2.635,10.357,4.037C1223.475-994.1,1223.793-993.607,1224-993.417Z" transform="translate(-25.245 0)"/><path class="a" d="M1194.283-932.4c-.29-2.153-.128-2.373,1.881-2.381,3.787-.014,7.575.046,11.361-.024,1.7-.031,2.268.649,1.861,2.405Z" transform="translate(-14.788 -39.857)"/><path class="a" d="M1190.864-922.662c.014-1.4.471-1.98,1.886-1.954q6.982.13,13.967,0c1.393-.023,1.916.5,1.854,1.95Z" transform="translate(-12.714 -46.246)"/><path class="a" d="M1239.651-967.211l-1.569,3.855-2.2-.6,1.7-4.326Z" transform="translate(-40.946 -18.857)"/></g></svg>