<svg xmlns="http://www.w3.org/2000/svg" width="69.231" height="70.441" viewBox="0 0 69.231 70.441"><defs><style>.a{fill:#1d1d1d;}.b{fill:#79c843;}</style></defs><g transform="translate(-3465.226 1177.581)"><path class="a" d="M3513.448-1129.385v-3.708h.915q7.3,0,14.6,0c1.5,0,1.765-.264,1.76-1.739q-.007-1.969,0-3.939c.006-1.47-.258-1.735-1.763-1.736q-3.63,0-7.26,0h-.813v-3.708c1.782,0,3.55.014,5.318-.005a22.206,22.206,0,0,0,3-.136c1.15-.17,1.514-.7,1.517-1.855,0-1.184.006-2.368,0-3.553a1.53,1.53,0,0,0-1.335-1.7,4.533,4.533,0,0,0-1.066-.151q-5.406-.017-10.812-.006a3.232,3.232,0,0,0-.334.037,25.953,25.953,0,0,1-10.484,20.583,24.609,24.609,0,0,1-17.017,5.274,26.288,26.288,0,0,1-24.437-25.56,26.4,26.4,0,0,1,22.994-26.127c13.709-1.571,26.45,8.336,28.65,22.081h.819c3.424,0,6.848-.007,10.271,0a6.845,6.845,0,0,1,5.03,2.171,4.681,4.681,0,0,1,1.436,3.542c-.031.951-.053,1.907,0,2.857a5.11,5.11,0,0,1-1.548,4.192,6.154,6.154,0,0,1,1.546,5.076,24.314,24.314,0,0,0,0,2.471,5.044,5.044,0,0,1-1.007,3.327.659.659,0,0,0,.016.936,5.1,5.1,0,0,1,.992,3.256c-.037,1.209-.038,2.421,0,3.629a5.1,5.1,0,0,1-1.024,3.322.641.641,0,0,0,.012.931,4.871,4.871,0,0,1,1.01,3.168c-.03,1.338,0,2.677-.009,4.016a5.476,5.476,0,0,1-5.286,5.294q-16.952.012-33.9,0a5.481,5.481,0,0,1-5.294-5.287c-.007-1.261.04-2.524-.01-3.784a5.446,5.446,0,0,1,2.356-4.769c.121-.093.243-.183.318-.24l-.587-2.573,3.712.284c.3,1.373.5,1.542,1.857,1.542q15.716,0,31.431,0c1.43,0,1.707-.288,1.7-1.719s0-2.832,0-4.248c0-1.081-.363-1.444-1.512-1.445q-7.182-.008-14.365,0Zm-.031-22.188a21.943,21.943,0,0,0-22.091-22.3,21.942,21.942,0,0,0-22.395,22.149,21.941,21.941,0,0,0,22.129,22.337A21.941,21.941,0,0,0,3513.417-1151.573Zm-1.247,33.309q-8.45,0-16.9,0c-1.261,0-1.616.353-1.622,1.594-.006,1.441-.01,2.881,0,4.322.009,1.108.381,1.491,1.489,1.492q17.055.008,34.11,0c1.092,0,1.458-.392,1.466-1.514.01-1.363,0-2.727,0-4.09,0-1.506-.3-1.8-1.8-1.805Q3520.543-1118.265,3512.17-1118.264Z" transform="translate(0)"/><path class="b" d="M3585.161-1105.169v2.688a7.591,7.591,0,0,1,6.067,4.462l-3.1,1.615c-1.937-2.429-4.457-2.9-7.3-2.161a2.749,2.749,0,0,0-2.242,2.089,2.286,2.286,0,0,0,1.961,2.951c1.471.352,2.986.516,4.475.8a22.538,22.538,0,0,1,2.619.628,5.7,5.7,0,0,1,4.357,4.872c.351,2.634-.2,5.035-2.426,6.683a16.327,16.327,0,0,1-3.386,1.565,5.141,5.141,0,0,1-1.021.2v3.151h-3.685v-2.969a8.871,8.871,0,0,1-7.716-5.542l3.365-1.582c2.2,2.955,4.975,4,8.185,3.028a5,5,0,0,0,1.811-.968,2.636,2.636,0,0,0-.583-4.466,19.992,19.992,0,0,0-3.764-1.034c-1.349-.314-2.743-.46-4.063-.858a5.17,5.17,0,0,1-3.929-4.479c-.34-2.5.156-4.787,2.372-6.271a19.578,19.578,0,0,1,3.5-1.524,5,5,0,0,1,.789-.18v-2.7Z" transform="translate(-91.77 -61.227)"/></g></svg>