<svg xmlns="http://www.w3.org/2000/svg" width="85.242" height="80.741" viewBox="0 0 85.242 80.741"><defs><style>.a{fill:#1d1d1d;}.b{fill:#79c843;}</style></defs><g transform="translate(-4678.613 1143.691)"><path class="a" d="M4732.884-888.483q-4.148-.476-8.3-.953a28.927,28.927,0,0,0-8.461-.206,13.653,13.653,0,0,0-2.586.778,1.084,1.084,0,0,0-.571,1.46,1.119,1.119,0,0,0,1.48.682c2.528-1.056,5.144-.842,7.761-.587,3.464.338,6.92.77,10.388,1.049a12.673,12.673,0,0,0,6.016-.86c1.947-.824,3.321-2.14,3.44-4.389a8.048,8.048,0,0,0-.183-1.792c-.179-1.022.113-1.549,1.1-1.826.826-.231,1.648-.5,2.489-.654a25.859,25.859,0,0,0,8.1-3.411c1.627-.94,3.295-1.81,4.938-2.722a5.142,5.142,0,0,1,2.938-.686,2.38,2.38,0,0,1,2.288,3.248,5.2,5.2,0,0,1-1.9,2.771c-5.125,3.924-10.234,7.868-15.426,11.7a19.837,19.837,0,0,1-4.575,2.467c-5.926,2.3-11.9,4.478-17.855,6.7a13.328,13.328,0,0,1-7.53.458q-13.156-2.712-26.348-5.251a13.281,13.281,0,0,0-3.592.253c-.947.09-1.89.225-2.836.325a1.314,1.314,0,0,1-1.574-1.2q-1.723-9.238-3.437-18.478a1.311,1.311,0,0,1,1.174-1.707c.5-.1,1-.2,1.5-.289a15.05,15.05,0,0,0,5.137-1.735c3.117-1.838,6.63-2.133,10.188-1.818a32.184,32.184,0,0,1,10.874,3.26c2.938,1.383,5.927,2.659,8.894,3.98a6.678,6.678,0,0,0,3.151.308,51.857,51.857,0,0,1,15.75,1.431,11.156,11.156,0,0,1,1.96.706,4.031,4.031,0,0,1,2.342,3.014,2.332,2.332,0,0,1-1.443,2.9,15.674,15.674,0,0,1-3.133.856,14.879,14.879,0,0,1-2.153.12C4732.894-888.548,4732.888-888.516,4732.884-888.483Z" transform="translate(0 -188.023)"/><path class="a" d="M4850.018-1128.911a6.474,6.474,0,0,1-.913,1.38,2.03,2.03,0,0,0-.76,2.283,1.943,1.943,0,0,0,1.962,1.373,1.844,1.844,0,0,1,1.837,1.675,1.9,1.9,0,0,1-1.273,2.078,1.962,1.962,0,0,0-1.429,1.926,1.971,1.971,0,0,0,1.41,1.871,1.857,1.857,0,0,1,1.293,2.06,1.838,1.838,0,0,1-1.821,1.693,1.973,1.973,0,0,0-1.976,1.36,1.99,1.99,0,0,0,.808,2.322,1.862,1.862,0,0,1,.473,2.386,1.915,1.915,0,0,1-2.311.94,1.911,1.911,0,0,0-2.541,1.548,2.581,2.581,0,0,0,.319,1.437,1.983,1.983,0,0,1-.17,2.552,1.918,1.918,0,0,1-2.6.172,1.846,1.846,0,0,0-2.271.049,1.923,1.923,0,0,0-.719,2.162,1.888,1.888,0,0,1-.943,2.363,1.925,1.925,0,0,1-2.475-.6,1.928,1.928,0,0,0-2.233-.69,1.944,1.944,0,0,0-1.328,1.857,1.857,1.857,0,0,1-1.654,1.927,1.854,1.854,0,0,1-2.119-1.294,1.933,1.933,0,0,0-1.883-1.39,1.923,1.923,0,0,0-1.891,1.375,1.868,1.868,0,0,1-2.109,1.315,1.888,1.888,0,0,1-1.677-1.914,1.944,1.944,0,0,0-1.369-1.893,1.962,1.962,0,0,0-2.221.743,1.885,1.885,0,0,1-2.423.578,1.865,1.865,0,0,1-.977-2.285,1.938,1.938,0,0,0-.749-2.273,1.908,1.908,0,0,0-2.333.037,1.851,1.851,0,0,1-2.477-.222,1.865,1.865,0,0,1-.2-2.48,1.908,1.908,0,0,0,.02-2.333,1.907,1.907,0,0,0-2.21-.747,1.879,1.879,0,0,1-2.349-.977,1.952,1.952,0,0,1,.646-2.469,1.913,1.913,0,0,0,.676-2.177,1.956,1.956,0,0,0-1.835-1.359c-1.5-.121-2.373-1.285-1.851-2.569a2.5,2.5,0,0,1,1.168-1.168,2.114,2.114,0,0,0,1.41-1.885,1.97,1.97,0,0,0-1.414-1.938,1.9,1.9,0,0,1-1.288-2.067,1.868,1.868,0,0,1,1.9-1.693,1.948,1.948,0,0,0,1.908-1.354,1.924,1.924,0,0,0-.716-2.226,1.932,1.932,0,0,1-.57-2.484,1.862,1.862,0,0,1,2.3-.927,1.912,1.912,0,0,0,2.217-.731,1.908,1.908,0,0,0,0-2.334,1.859,1.859,0,0,1,.187-2.48,1.9,1.9,0,0,1,2.537-.211,1.9,1.9,0,0,0,2.332-.013,1.931,1.931,0,0,0,.717-2.165,1.893,1.893,0,0,1,.942-2.363,1.927,1.927,0,0,1,2.474.614,1.944,1.944,0,0,0,2.172.705,1.925,1.925,0,0,0,1.38-1.884,1.906,1.906,0,0,1,1.664-1.93,1.88,1.88,0,0,1,2.117,1.3,1.934,1.934,0,0,0,1.885,1.388,1.927,1.927,0,0,0,1.892-1.376,1.888,1.888,0,0,1,2.111-1.321,1.876,1.876,0,0,1,1.667,1.92,1.907,1.907,0,0,0,1.379,1.884,1.923,1.923,0,0,0,2.22-.735,1.887,1.887,0,0,1,2.423-.572,1.884,1.884,0,0,1,.983,2.284,1.944,1.944,0,0,0,.736,2.274,1.948,1.948,0,0,0,2.337-.038,1.86,1.86,0,0,1,2.477.224,1.855,1.855,0,0,1,.2,2.478,1.906,1.906,0,0,0-.018,2.333,1.964,1.964,0,0,0,2.281.732A2.091,2.091,0,0,1,4850.018-1128.911Zm-4.922,10.733a18.441,18.441,0,0,0-18.075-18.43,18.422,18.422,0,0,0-18.715,18.275,18.442,18.442,0,0,0,18.351,18.512A18.443,18.443,0,0,0,4845.1-1118.178Z" transform="translate(-96.692)"/><path class="b" d="M4870.087-1058.962c.251-.238.438-.406.614-.582q4.877-4.876,9.75-9.757a3.486,3.486,0,0,1,3.216-1.11,3.29,3.29,0,0,1,2.722,2.311,3.365,3.365,0,0,1-.764,3.557c-.94,1-1.928,1.947-2.9,2.915q-4.928,4.923-9.86,9.845a3.526,3.526,0,0,1-5.494,0c-1.841-1.837-3.692-3.664-5.514-5.521a3.333,3.333,0,0,1-.8-3.547,3.28,3.28,0,0,1,2.633-2.322,3.376,3.376,0,0,1,3.19.978C4867.937-1061.146,4868.976-1060.085,4870.087-1058.962Z" transform="translate(-143.723 -57.743)"/></g></svg>