<svg xmlns="http://www.w3.org/2000/svg" width="63.311" height="69.841" viewBox="0 0 63.311 69.841"><defs><style>.a{fill:#1d1d1d;}.b{fill:#79c843;}</style></defs><g transform="translate(-2994.46 1118.384)"><path class="a" d="M3044.6-1082.073h.4c1.828,0,3.656,0,5.485,0a7.325,7.325,0,0,1,7.265,7.187c.012,2.246.026,4.493,0,6.738a7.31,7.31,0,0,1-7.213,7.155c-1.881.012-3.761.007-5.642.01h-.485c0,.438-.012.85,0,1.262a6.759,6.759,0,0,1-1.527,4.731,6.747,6.747,0,0,1-4.575,2.449.681.681,0,0,0-.529.326,10.042,10.042,0,0,1-2.268,2.364,7.087,7.087,0,0,1-5.392,1.219,29.185,29.185,0,0,1-6.337-1.966c-1.581-.609-3.17-1.2-4.761-1.783a2.153,2.153,0,0,0-.724-.119q-6.23-.01-12.459,0a6.816,6.816,0,0,1-6.136-3.4.8.8,0,0,0-.417-.3,6.66,6.66,0,0,1-4.82-6.69,24.739,24.739,0,0,1,.55-3.237q1.734-8.831,3.5-17.656a17.349,17.349,0,0,0,.326-3.495c-.013-6.647.033-13.295-.022-19.942a6.832,6.832,0,0,1,6.124-6.935.685.685,0,0,0,.534-.318,9.91,9.91,0,0,1,3.595-3.249,7.581,7.581,0,0,1,5.315-.335,41.36,41.36,0,0,1,5.72,2.106c1.376.562,2.761,1.1,4.149,1.634a2.064,2.064,0,0,0,.722.123c4.205.008,8.41-.014,12.615.013a6.71,6.71,0,0,1,5.9,3.322.919.919,0,0,0,.456.364,6.64,6.64,0,0,1,4.823,6.378,15.866,15.866,0,0,1-.452,3.049q-1.837,9.369-3.7,18.733A2.357,2.357,0,0,0,3044.6-1082.073Zm-2.937,21.086h-.3q-9.952,0-19.9,0c-1.631,0-3.271.056-4.893-.077a7.243,7.243,0,0,1-6.521-7.122c-.013-2.233-.006-4.466,0-6.7a6.911,6.911,0,0,1,.516-2.595,7.363,7.363,0,0,1,6.908-4.588q11.852-.008,23.7,0h.521v-.4q0-12.46,0-24.919a4.043,4.043,0,0,0-4.143-4.134c-1.515-.005-3.03,0-4.544,0q-13.655,0-27.309,0a4.029,4.029,0,0,0-4.133,4.136q-.005,3.722-.007,7.444,0,10.814.013,21.628,0,9.56,0,19.121a4.079,4.079,0,0,0,.132,1.043,4.039,4.039,0,0,0,3.987,2.981q8.4,0,16.809,0,7.542,0,15.085,0a4.011,4.011,0,0,0,4.071-3.541A18.6,18.6,0,0,0,3041.667-1060.987Zm-7.729-18.429q-8.225,0-16.451,0a4.6,4.6,0,0,0-4.725,4.727c0,2.115.015,4.23,0,6.346a4.54,4.54,0,0,0,3.5,4.522,11.236,11.236,0,0,0,2.41.162q15.864.016,31.729.007a4.62,4.62,0,0,0,4.646-4.657q.013-3.231-.006-6.463a4.942,4.942,0,0,0-.154-1.236,4.615,4.615,0,0,0-4.571-3.408Q3042.125-1079.423,3033.938-1079.417Zm-35.12,8.281-.056.012c-.422,2.134-.859,4.265-1.257,6.4a12.088,12.088,0,0,0-.3,2.51,3.72,3.72,0,0,0,1.613,2.839Zm45.617-24.521.061.006c.01-.046.02-.092.029-.139.5-2.53,1.014-5.057,1.492-7.591a3.857,3.857,0,0,0-1.285-3.7,3,3,0,0,0-.3-.212Zm-35.573-18.565h8.4a13.55,13.55,0,0,0-4.968-1.322A5.244,5.244,0,0,0,3008.861-1114.22Zm25.483,61.735h-7.886a13.157,13.157,0,0,0,1.759.645,8.843,8.843,0,0,0,3.623.424A4.879,4.879,0,0,0,3034.344-1052.485Z"/><path class="b" d="M3097.895-943.244q8.186,0,16.373,0a4.614,4.614,0,0,1,4.571,3.408,4.943,4.943,0,0,1,.154,1.236q.022,3.232.005,6.463a4.62,4.62,0,0,1-4.646,4.657q-15.864.01-31.728-.007a11.239,11.239,0,0,1-2.41-.162,4.541,4.541,0,0,1-3.5-4.522c.017-2.115,0-4.23,0-6.346a4.6,4.6,0,0,1,4.725-4.727Q3089.669-943.254,3097.895-943.244Zm5.083,2.763c.118.187.19.309.269.426.92,1.378,1.833,2.761,2.767,4.129a.5.5,0,0,1,.007.682c-1.053,1.525-2.082,3.066-3.117,4.6-.076.112-.143.231-.248.4,1.123,0,2.177-.008,3.23.006a.539.539,0,0,0,.534-.294c.606-.989,1.229-1.968,1.873-2.992.1.145.178.259.252.377.533.851,1.074,1.7,1.592,2.559a.616.616,0,0,0,.618.352c.939-.023,1.88-.008,2.82-.01.11,0,.221-.017.387-.03l-3.531-5.252,3.243-4.957c-1.071,0-2.061.015-3.049-.008a.659.659,0,0,0-.7.4c-.49.918-1.023,1.812-1.562,2.755-.582-.989-1.133-1.935-1.7-2.872-.069-.115-.217-.257-.332-.259C3105.239-940.489,3104.144-940.481,3102.978-940.481Zm-.372,10.238a1.263,1.263,0,0,0-.027-.185q-1.88-4.911-3.758-9.823a.332.332,0,0,0-.38-.235c-.939.008-1.879.017-2.819,0a.491.491,0,0,0-.563.379c-1.086,2.878-2.192,5.748-3.292,8.62l-.476,1.246c1.089,0,2.116.006,3.142-.011.079,0,.192-.153.227-.256.155-.467.288-.941.434-1.431,1.173,0,2.321-.006,3.468.011.093,0,.229.144.267.249.143.391.243.8.382,1.19.035.1.155.237.238.238C3100.49-930.237,3101.53-930.243,3102.606-930.243Zm-10.757-10.209H3082.1v2.507h3.259v7.678h3.233v-7.7h3.259Z" transform="translate(-63.956 -136.172)"/><path class="a" d="M3067.9-1059.124q-6.208,0-12.417,0a1.368,1.368,0,0,1-1.418-.891,1.329,1.329,0,0,1,1.124-1.751,3.057,3.057,0,0,1,.43-.016q12.3,0,24.6,0a2.51,2.51,0,0,1,.657.071,1.3,1.3,0,0,1,.936,1.406,1.318,1.318,0,0,1-1.221,1.172c-.143.01-.287.006-.431.006Z" transform="translate(-46.287 -44.009)"/><path class="a" d="M3067.94-1025.274q-6.208,0-12.416,0a1.325,1.325,0,0,1-1.45-1.042,1.3,1.3,0,0,1,.965-1.555,2.537,2.537,0,0,1,.582-.056q12.338,0,24.676,0c.962,0,1.582.543,1.565,1.362a1.311,1.311,0,0,1-1.348,1.29c-1.2.011-2.4,0-3.6,0Z" transform="translate(-46.326 -70.329)"/><path class="a" d="M3067.851-991.411q-6.13,0-12.26,0a2.515,2.515,0,0,1-.66-.059,1.324,1.324,0,0,1-.951-1.33,1.327,1.327,0,0,1,1.124-1.229,3.555,3.555,0,0,1,.546-.031q12.261,0,24.522,0a3.636,3.636,0,0,1,.469.022,1.316,1.316,0,0,1,1.147,1.571,1.292,1.292,0,0,1-1.208,1.047c-.7.033-1.409.021-2.114.021q-5.308,0-10.616,0Z" transform="translate(-46.275 -96.66)"/><path class="b" d="M3162.46-915.217l1.137-3.655c.4,1.279.77,2.449,1.149,3.655Z" transform="translate(-130.623 -155.123)"/></g></svg>