<svg xmlns="http://www.w3.org/2000/svg" width="59.855" height="59.802" viewBox="0 0 59.855 59.802"><defs><style>.a{fill:#1d1d1d;}.b{fill:#79c843;}</style></defs><g transform="translate(-2148.1 1282.447)"><path class="a" d="M2178.041-1282.447A29.912,29.912,0,0,0,2148.1-1252.6a29.917,29.917,0,0,0,29.931,29.957,29.916,29.916,0,0,0,29.924-29.93A29.912,29.912,0,0,0,2178.041-1282.447Zm-.009,57.434a27.548,27.548,0,0,1-27.562-27.584,27.543,27.543,0,0,1,27.57-27.481,27.542,27.542,0,0,1,27.545,27.506A27.545,27.545,0,0,1,2178.031-1225.013Z" transform="translate(0)"/><path class="b" d="M2423.049-1067.467l-5.81,5.842-5.889-5.921v14.057h-3.9v-19.581c.109-.006.221-.017.333-.017,1.083,0,2.166-.011,3.249.01a.859.859,0,0,1,.538.223q2.709,2.676,5.394,5.377a3.464,3.464,0,0,1,.234.292c.124-.113.208-.186.287-.265q2.694-2.691,5.384-5.386a.77.77,0,0,1,.608-.258c1.174.014,2.349.006,3.549.006v19.593h-3.886v-13.932Z" transform="translate(-231.947 -187.235)"/><path class="a" d="M2252.473-1072.762v3.883h-6.264v15.679h-3.919v-15.654h-6.278v-3.908Z" transform="translate(-78.625 -187.533)"/></g></svg>