<?xml version="1.0" encoding="iso-8859-1"?>
<!-- Generator: Adobe Illustrator 19.0.0, SVG Export Plug-In . SVG Version: 6.00 Build 0)  -->
<svg version="1.1" id="Layer_1" xmlns="http://www.w3.org/2000/svg" xmlns:xlink="http://www.w3.org/1999/xlink" x="0px" y="0px"
	 viewBox="0 0 512 512" style="enable-background:new 0 0 512 512;" xml:space="preserve">
<g>
	<g>
		<g>
			<path d="M456.313,85.333h-20.677c-3.094,0-6.031,1.344-8.063,3.677c-2.021,2.333-2.938,5.438-2.5,8.5
				c1.083,7.583,1.594,13.885,1.594,19.823C426.667,193.792,364.458,256,288,256s-138.667-62.208-138.667-138.667
				c0-5.938,0.51-12.24,1.594-19.823c0.438-3.063-0.479-6.167-2.5-8.5c-2.031-2.333-4.969-3.677-8.063-3.677h-24.758l-8.665-27.698
				c-2.786-8.906-11.036-14.969-20.368-14.969H32c-5.891,0-10.667,4.775-10.667,10.667v21.333c0,5.891,4.776,10.667,10.667,10.667
				h38.896l67.431,215.507l-31.66,31.66c-12.25,12.24-15.875,30.49-9.25,46.49s22.104,26.344,39.417,26.344h300.5
				c5.891,0,10.667-4.776,10.667-10.667v-21.333c0-5.892-4.776-10.667-10.667-10.667h-300.5L179.5,320h194.854
				c16.448,0,31.604-9.615,38.615-24.5l74.438-158.177c2.135-4.552,3.26-9.604,3.26-14.615v-3.021
				C490.667,100.74,475.26,85.333,456.313,85.333z"/>
			<path d="M288,234.667c64.698,0,117.333-52.635,117.333-117.333S352.698,0,288,0S170.667,52.635,170.667,117.333
				S223.302,234.667,288,234.667z M245.333,106.667h32v-32C277.333,68.771,282.104,64,288,64s10.667,4.771,10.667,10.667v32h32
				c5.896,0,10.667,4.771,10.667,10.667c0,5.896-4.771,10.667-10.667,10.667h-32v32c0,5.896-4.771,10.667-10.667,10.667
				s-10.667-4.771-10.667-10.667v-32h-32c-5.896,0-10.667-4.771-10.667-10.667C234.667,111.438,239.438,106.667,245.333,106.667z"/>
			<circle cx="149.333" cy="469.333" r="42.667"/>
			<circle cx="405.333" cy="469.333" r="42.667"/>
		</g>
	</g>
</g>
<g>
</g>
<g>
</g>
<g>
</g>
<g>
</g>
<g>
</g>
<g>
</g>
<g>
</g>
<g>
</g>
<g>
</g>
<g>
</g>
<g>
</g>
<g>
</g>
<g>
</g>
<g>
</g>
<g>
</g>
</svg>
