<?xml version="1.0" encoding="iso-8859-1"?>
<!-- Generator: Adobe Illustrator 19.0.0, SVG Export Plug-In . SVG Version: 6.00 Build 0)  -->
<svg version="1.1" id="Layer_1" xmlns="http://www.w3.org/2000/svg" xmlns:xlink="http://www.w3.org/1999/xlink" x="0px" y="0px"
	 viewBox="0 0 490.001 490.001" style="enable-background:new 0 0 490.001 490.001;" xml:space="preserve">
<g>
	<g>
		<g>
			<path d="M480,75h-50V10c0-5.523-4.477-10-10-10h-410c-5.523,0-10,4.477-10,10v395c0,5.523,4.477,10,10,10h50v65
				c0,5.523,4.477,10,10,10h309.988c0.003,0,0.006,0.001,0.01,0.001c2.603,0,5.16-1.017,7.073-2.929l100-100
				c1.912-1.913,2.903-4.47,2.904-7.071H490V85C490,79.477,485.523,75,480,75z M60.001,85v310h-40V20h390v55h-340
				C64.477,75,60.001,79.477,60.001,85z M390,455.858V390h65.857L390,455.858z M470,370h-90c-5.522,0-10,4.477-10,10v90h-290V95h390
				V370z"/>
			<rect x="125.001" y="145" width="280" height="20"/>
			<rect x="125.001" y="205" width="150" height="20"/>
			<rect x="125.001" y="265" width="280" height="20"/>
			<rect x="125.001" y="325" width="150" height="20"/>
			<rect x="125.001" y="385" width="35" height="20"/>
			<rect x="175.001" y="385" width="35" height="20"/>
			<rect x="225.001" y="385" width="35" height="20"/>
		</g>
	</g>
</g>
<g>
</g>
<g>
</g>
<g>
</g>
<g>
</g>
<g>
</g>
<g>
</g>
<g>
</g>
<g>
</g>
<g>
</g>
<g>
</g>
<g>
</g>
<g>
</g>
<g>
</g>
<g>
</g>
<g>
</g>
</svg>
