<svg height="480pt" viewBox="0 0 480 480" width="480pt" xmlns="http://www.w3.org/2000/svg"><path d="m432 240c0 106.039062-85.960938 192-192 192s-192-85.960938-192-192 85.960938-192 192-192 192 85.960938 192 192zm0 0" fill="#cfd2fc"/><g fill="#8690fa"><path d="m240 480c-132.546875 0-240-107.453125-240-240s107.453125-240 240-240 240 107.453125 240 240c-.148438 132.484375-107.515625 239.851562-240 240zm0-464c-123.710938 0-224 100.289062-224 224s100.289062 224 224 224 224-100.289062 224-224c-.140625-123.652344-100.347656-223.859375-224-224zm0 0"/><path d="m208 328c0 8.835938-7.164062 16-16 16s-16-7.164062-16-16 7.164062-16 16-16 16 7.164062 16 16zm0 0"/><path d="m320 328c0 8.835938-7.164062 16-16 16s-16-7.164062-16-16 7.164062-16 16-16 16 7.164062 16 16zm0 0"/><path d="m168 192c-3.90625-.003906-7.238281-2.832031-7.878906-6.6875l-6.898438-41.3125h-33.222656c-4.417969 0-8-3.582031-8-8s3.582031-8 8-8h40c3.910156 0 7.246094 2.832031 7.886719 6.6875l8 48c.722656 4.355469-2.21875 8.472656-6.574219 9.199219-.433594.078125-.871094.113281-1.3125.113281zm0 0"/></g><path d="m320 280h-144l-16-96h176zm0 0" fill="#5153ff"/></svg>